<?xml version="1.0" standalone="no"?><!DOCTYPE svg PUBLIC "-//W3C//DTD SVG 1.1//EN" "http://www.w3.org/Graphics/SVG/1.1/DTD/svg11.dtd"><svg t="1670054644089" class="icon" viewBox="0 0 1024 1024" version="1.1" xmlns="http://www.w3.org/2000/svg" p-id="1004" xmlns:xlink="http://www.w3.org/1999/xlink" width="300" height="300"><path d="M477.866667 870.4h68.266666V477.866667h-68.266666z" fill="#262626" p-id="1005"></path><path d="M221.866667 494.933333H153.6v341.333334a85.333333 85.333333 0 0 0 85.333333 85.333333h546.133334a85.333333 85.333333 0 0 0 85.333333-85.333333V494.933333h-68.266667v341.333334a17.066667 17.066667 0 0 1-17.066666 17.066666H238.933333a17.066667 17.066667 0 0 1-17.066666-17.066666V494.933333z" fill="#262626" p-id="1006"></path><path d="M711.816533 173.038933c5.12 1.774933 10.581333 5.410133 14.6944 11.4688 3.9936 5.853867 7.867733 15.650133 7.304534 31.607467-0.6144 16.9984-10.410667 38.9632-39.850667 65.911467l46.114133 50.346666c36.3008-33.245867 60.416-71.168 61.952-113.800533 2.133333-59.5456-30.395733-97.041067-67.84-110.0288-34.935467-12.117333-91.869867-9.2672-147.899733 35.7888-37.4784 30.1568-72.055467 80.9472-104.925867 147.797333l61.269334 30.122667c31.419733-63.914667 60.654933-103.970133 86.442666-124.7232 38.877867-31.2832 71.406933-28.416 82.7392-24.490667z" fill="#FF5500" p-id="1007"></path><path d="M312.183467 173.038933c-5.12 1.774933-10.581333 5.410133-14.6944 11.4688-3.9936 5.853867-7.867733 15.650133-7.304534 31.607467 0.6144 16.9984 10.410667 38.9632 39.850667 65.911467l-46.114133 50.346666c-36.3008-33.245867-60.416-71.168-61.952-113.800533-2.133333-59.5456 30.395733-97.041067 67.84-110.0288 34.952533-12.117333 91.886933-9.2672 147.899733 35.7888 37.495467 30.1568 72.055467 80.9472 104.925867 147.797333l-61.269334 30.122667c-31.419733-63.914667-60.654933-103.970133-86.442666-124.7232-38.877867-31.2832-71.406933-28.433067-82.7392-24.490667z" fill="#FF5500" p-id="1008"></path><path d="M853.333333 273.066667a85.333333 85.333333 0 0 1 85.333334 85.333333v85.333333a85.333333 85.333333 0 0 1-85.333334 85.333334H170.666667a85.333333 85.333333 0 0 1-85.333334-85.333334v-85.333333a85.333333 85.333333 0 0 1 85.333334-85.333333z m0 68.266666H170.666667a17.066667 17.066667 0 0 0-17.066667 17.066667v85.333333a17.066667 17.066667 0 0 0 17.066667 17.066667h682.666666a17.066667 17.066667 0 0 0 17.066667-17.066667v-85.333333a17.066667 17.066667 0 0 0-17.066667-17.066667z" fill="#262626" p-id="1009"></path></svg>